<svg width="270" height="60" viewBox="0 0 270 60" fill="#FFFFFF" xmlns="http://www.w3.org/2000/svg">
<path d="M6.2 13.1L21.8 28.6L32.5 18L43.2 28.6L50.6 21.3L47 17.7H61V31.6L57.3 28L43.3 41.9L32.5 31.3L21.9 41.9L10.5 30.7C10.6 35.7 12.7 40.7 16.5 44.6C23.9 52 35.7 52.5 43.8 46.3L50.5 53C44.9 57.6 37.9 60 31.1 60C23.4 60 15.7 57.1 9.8 51.2C-0.600002 40.9 -1.8 24.8 6.2 13.1ZM10.6 8C21.8 -2.3 38.9 -2.6 50.4 7L43.6 13.6C39.9 10.7 35.5 9.3 31 9.3C26.1 9.3 21.2 11.1 17.3 14.6L10.6 8Z"/>
<path d="M115.401 46.4C110.701 51 104.701 53.1 98.1009 53.1C81.2009 53.1 74.1009 41.5 74.0009 29.8C73.9009 18 81.7009 6 98.1009 6C104.301 6 110.101 8.3 114.801 12.9L109.101 18.4C106.101 15.5 102.101 14.1 98.1009 14.1C87.1009 14.1 82.4009 22.2 82.5009 29.8C82.6009 37.3 86.9009 45.1 98.1009 45.1C102.101 45.1 106.501 43.5 109.501 40.5L115.401 46.4ZM125.401 36.2C125.401 41 128.301 45.6 134.101 45.6C139.901 45.6 142.801 41.1 142.801 36.2C142.801 31.4 139.401 26.8 134.101 26.8C128.401 26.7 125.401 31.4 125.401 36.2ZM150.801 36.2C150.801 45.4 144.501 52.8 134.101 52.8C123.701 52.8 117.501 45.4 117.501 36.2C117.501 27.1 123.901 19.6 134.001 19.6C144.201 19.6 150.801 27 150.801 36.2ZM156.201 52H164.101V20H156.201V52ZM164.801 11.2C164.801 17.3 155.501 17.3 155.501 11.2C155.501 5.1 164.801 5.1 164.801 11.2ZM189.201 19.7C196.701 19.7 202.801 25.3 202.801 35.3V52H194.901V35.4C194.901 30.6 192.201 26.9 187.201 26.9C182.301 26.9 179.001 31 179.001 35.8V52.1H171.101V20.1H178.201L178.701 24.4C181.901 21.3 185.201 19.7 189.201 19.7ZM210.401 6.8L221.101 39.4L232.101 6.8H237.701L249.101 39.4L259.501 6.8H269.101L252.701 52H245.401L239.801 37.8L235.001 23.5L230.201 38L224.701 52.1H217.401L200.701 6.9H210.401V6.8Z"/>
</svg>
