<svg xmlns="http://www.w3.org/2000/svg">
  <defs>
    <g id="uniswap">
      <path d="M4.987 0.21818C4.76882 0.187011 4.75843 0.176622 4.86233 0.166232C5.05973 0.135063 5.51687 0.176622 5.83895 0.249349C6.587 0.425973 7.26233 0.883115 7.97921 1.68312L8.16622 1.9013L8.43635 1.85974C9.5896 1.67273 10.774 1.81818 11.761 2.27532C12.0312 2.4 12.4571 2.64935 12.5091 2.71169C12.5299 2.73247 12.561 2.86753 12.5818 3.0026C12.6545 3.49091 12.6234 3.85454 12.4675 4.13506C12.3844 4.29091 12.3844 4.33247 12.4364 4.46753C12.4779 4.57143 12.6026 4.64415 12.7169 4.64415C12.9662 4.64415 13.226 4.24935 13.3506 3.6987L13.4026 3.48052L13.4961 3.58441C14.026 4.17662 14.4415 4.9974 14.5039 5.57922L14.5247 5.73506L14.4312 5.6C14.2753 5.36104 14.1299 5.20519 13.9325 5.07013C13.5792 4.83117 13.2052 4.75844 12.2182 4.70649C11.3247 4.65454 10.8156 4.58182 10.3169 4.41558C9.46492 4.13506 9.02856 3.77143 8.02077 2.43117C7.57401 1.83896 7.2935 1.51688 7.01298 1.24675C6.39999 0.654544 5.787 0.342855 4.987 0.21818Z" />
      <path d="M12.7273 1.53766C12.748 1.14285 12.8 0.883114 12.9143 0.644153C12.9558 0.550646 12.9974 0.467529 13.0078 0.467529C13.0182 0.467529 12.9974 0.540257 12.9662 0.623373C12.8831 0.851945 12.8727 1.17402 12.9247 1.53766C12.9974 2.00519 13.0286 2.06753 13.5273 2.57662C13.7558 2.81558 14.026 3.11688 14.1299 3.24155L14.3065 3.47013L14.1299 3.30389C13.9117 3.0961 13.413 2.7013 13.2987 2.64935C13.226 2.60779 13.2156 2.60779 13.1636 2.65974C13.1221 2.7013 13.1117 2.76363 13.1117 3.06493C13.1013 3.53246 13.0389 3.82337 12.8831 4.12467C12.8 4.28052 12.7896 4.24935 12.8623 4.07272C12.9143 3.93766 12.9247 3.87532 12.9247 3.42857C12.9247 2.52467 12.8208 2.30649 12.187 1.94285C12.0311 1.84935 11.761 1.71428 11.6052 1.64156C11.4389 1.56883 11.3143 1.50649 11.3247 1.50649C11.3454 1.48571 11.9584 1.66233 12.1974 1.76623C12.561 1.91169 12.6234 1.92207 12.6649 1.91169C12.6961 1.88052 12.7169 1.7974 12.7273 1.53766Z" />
      <path d="M5.41299 3.08574C4.97663 2.48314 4.69611 1.54807 4.75845 0.851971L4.77923 0.633789L4.88312 0.654568C5.07014 0.685737 5.39221 0.810413 5.54806 0.903919C5.96364 1.15327 6.15066 1.49613 6.32728 2.34807C6.37923 2.59743 6.45195 2.88833 6.48312 2.98184C6.53507 3.13769 6.73247 3.50132 6.89871 3.72989C7.01299 3.89613 6.94027 3.97924 6.68053 3.95846C6.28572 3.91691 5.75585 3.55327 5.41299 3.08574Z" />
      <path d="M12.1974 7.60518C10.1403 6.77402 9.41301 6.05713 9.41301 4.84155C9.41301 4.66492 9.4234 4.51947 9.4234 4.51947C9.43379 4.51947 9.50652 4.58181 9.60002 4.65454C10.0156 4.987 10.4831 5.13246 11.7818 5.31947C12.5403 5.43376 12.9766 5.51687 13.3715 5.65194C14.6286 6.06752 15.4078 6.91947 15.5948 8.07272C15.6468 8.40518 15.6156 9.03895 15.5325 9.37142C15.4598 9.63116 15.252 10.1091 15.2 10.1195C15.1896 10.1195 15.1689 10.0675 15.1689 9.98441C15.1481 9.54804 14.9299 9.13246 14.5663 8.81038C14.1299 8.43635 13.5689 8.15583 12.1974 7.60518Z" />
      <path d="M10.7429 7.94804C10.7221 7.7922 10.6702 7.5948 10.639 7.51168L10.587 7.35583L10.6805 7.47012C10.8156 7.62596 10.9195 7.81298 11.013 8.07272C11.0857 8.27012 11.0857 8.33246 11.0857 8.65454C11.0857 8.96622 11.0753 9.03895 11.013 9.21557C10.9091 9.49609 10.7844 9.6935 10.5766 9.91168C10.2026 10.2961 9.71431 10.5039 9.01821 10.5974C8.89353 10.6078 8.54028 10.639 8.22859 10.6597C7.44937 10.7013 6.92989 10.7844 6.46236 10.9506C6.40002 10.9714 6.33769 10.9922 6.3273 10.9818C6.30652 10.961 6.62859 10.774 6.88833 10.6493C7.25197 10.4727 7.626 10.3792 8.44678 10.2338C8.85197 10.1714 9.26756 10.0883 9.37145 10.0467C10.4 9.72467 10.9091 8.92467 10.7429 7.94804Z" />
      <path d="M11.6883 9.62075C11.4182 9.02855 11.3558 8.46751 11.5013 7.93764C11.5221 7.88569 11.5428 7.83374 11.5636 7.83374C11.5844 7.83374 11.6467 7.86491 11.7091 7.90647C11.8338 7.98958 12.0935 8.13504 12.7584 8.49868C13.6 8.95582 14.0779 9.30906 14.4104 9.71426C14.7013 10.0675 14.8779 10.4727 14.961 10.9714C15.013 11.2519 14.9818 11.9272 14.9091 12.2078C14.6805 13.0909 14.161 13.7974 13.4026 14.2026C13.2883 14.2649 13.1948 14.3065 13.1844 14.3065C13.174 14.3065 13.2156 14.2026 13.2779 14.0779C13.5273 13.548 13.5584 13.0389 13.3714 12.4675C13.2571 12.1143 13.0182 11.6883 12.5403 10.9714C11.9688 10.1402 11.8338 9.92205 11.6883 9.62075Z" />
      <path d="M3.94804 12.8C4.71687 12.1559 5.66233 11.6987 6.53505 11.5533C6.90908 11.4909 7.53246 11.5117 7.87531 11.6052C8.42596 11.7507 8.92466 12.0624 9.1844 12.4468C9.43375 12.8208 9.54804 13.1429 9.66233 13.8598C9.70388 14.1403 9.75583 14.4312 9.76622 14.4935C9.84934 14.8676 10.0156 15.1585 10.2234 15.3143C10.5454 15.5533 11.1065 15.5637 11.6571 15.3559C11.7506 15.3247 11.8338 15.2935 11.8338 15.3039C11.8545 15.3247 11.574 15.5117 11.387 15.6052C11.1273 15.7403 10.9195 15.7818 10.6389 15.7818C10.1402 15.7818 9.71427 15.5221 9.37142 15.0026C9.29869 14.8987 9.15324 14.5974 9.02856 14.3169C8.66492 13.4754 8.47791 13.226 8.05194 12.9455C7.67791 12.7065 7.19999 12.6546 6.83635 12.8312C6.35843 13.0598 6.23375 13.6728 6.56622 14.0468C6.70129 14.2026 6.95064 14.3273 7.15843 14.3585C7.54285 14.4104 7.87531 14.1091 7.87531 13.7247C7.87531 13.4754 7.78181 13.3299 7.53246 13.2156C7.19999 13.0702 6.83635 13.2364 6.84674 13.5585C6.84674 13.6935 6.90908 13.7766 7.04414 13.839C7.12726 13.8805 7.12726 13.8805 7.06492 13.8702C6.76362 13.8078 6.6909 13.4338 6.92986 13.1948C7.22077 12.9039 7.83375 13.0286 8.04155 13.4338C8.12466 13.6 8.13505 13.9325 8.06233 14.1403C7.8857 14.5974 7.387 14.8364 6.87791 14.7013C6.53505 14.6078 6.3896 14.5143 5.97401 14.0883C5.24674 13.3403 4.96622 13.1948 3.92726 13.039L3.72986 13.0078L3.94804 12.8Z" />
      <path d="M-1.5169 -3.91689C0.903883 -0.976635 4.63375 3.59479 4.82077 3.84414C4.97661 4.05194 4.91427 4.24934 4.65453 4.39479C4.50908 4.47791 4.20778 4.56103 4.06232 4.56103C3.89609 4.56103 3.69869 4.47791 3.56362 4.34285C3.47012 4.24934 3.06492 3.65713 2.15064 2.23376C1.45453 1.14285 0.862324 0.23895 0.851935 0.22856C0.810376 0.207781 0.810376 0.207782 2.07791 2.47272C2.87791 3.89609 3.13765 4.40518 3.13765 4.46752C3.13765 4.60259 3.09609 4.67531 2.92986 4.86233C2.64934 5.17402 2.52466 5.52726 2.43116 6.26492C2.32726 7.0857 2.04674 7.66752 1.24674 8.65453C0.779207 9.23635 0.70648 9.34025 0.592194 9.57921C0.44674 9.87012 0.405181 10.0364 0.384402 10.4104C0.363623 10.8052 0.405181 11.0545 0.519467 11.4286C0.623363 11.761 0.737649 11.9792 1.01817 12.4052C1.25713 12.7792 1.40258 13.0597 1.40258 13.1636C1.40258 13.2467 1.42336 13.2467 1.79739 13.1636C2.6909 12.9558 3.42856 12.6026 3.83375 12.1662C4.0831 11.8961 4.14544 11.7506 4.14544 11.3766C4.14544 11.1377 4.13505 11.0857 4.07271 10.9402C3.96882 10.7117 3.77142 10.5247 3.34544 10.2338C2.7844 9.84934 2.54544 9.53765 2.4831 9.12207C2.43116 8.76882 2.49349 8.52986 2.80518 7.87531C3.12726 7.19999 3.21038 6.91947 3.26232 6.23376C3.29349 5.79739 3.34544 5.62077 3.47012 5.4857C3.60518 5.34025 3.71947 5.2883 4.04155 5.24674C4.57142 5.17401 4.91427 5.03895 5.1844 4.77921C5.42336 4.56103 5.52726 4.34285 5.53765 4.02077L5.54804 3.78181L5.41297 3.63635C4.92466 3.07531 -1.83897 -4.36365 -1.87014 -4.36365C-1.88053 -4.36365 -1.7143 -4.16624 -1.5169 -3.91689ZM1.67271 10.8571C1.787 10.6597 1.72466 10.4104 1.53765 10.2857C1.36103 10.1714 1.0909 10.2234 1.0909 10.3792C1.0909 10.4208 1.11167 10.4623 1.17401 10.4831C1.26752 10.5351 1.27791 10.587 1.20518 10.7013C1.13245 10.8156 1.13245 10.9195 1.22596 10.9922C1.37142 11.1065 1.56882 11.0441 1.67271 10.8571Z" />
      <path d="M5.88051 5.39222C5.63116 5.46495 5.3922 5.73508 5.31948 6.00521C5.27792 6.17144 5.2987 6.47274 5.37142 6.56624C5.48571 6.7117 5.58961 6.75326 5.88051 6.75326C6.45194 6.75326 6.94026 6.50391 6.9922 6.20261C7.04415 5.95326 6.82597 5.6104 6.52467 5.45456C6.36883 5.37144 6.04675 5.34027 5.88051 5.39222ZM6.54545 5.9117C6.62857 5.78702 6.5974 5.65196 6.44155 5.55845C6.16103 5.38183 5.73506 5.52728 5.73506 5.79741C5.73506 5.93248 5.95324 6.07793 6.16103 6.07793C6.2961 6.07793 6.48311 5.99482 6.54545 5.9117Z" />
    </g>
    <g id="logotype">
      <path d="M151.686 48.101V0.892756H162.335V48.101H151.686ZM136.697 9.5069V0.214478H177.325V9.5069H136.697Z"/>
      <path d="M124.635 48.101L111.273 26.7352H109.984L91.5348 0.214478H104.219L117.377 20.2915H118.666L137.115 48.101H124.635ZM90.6531 48.101L108.356 22.462L116.563 27.0743L102.794 48.101H90.6531ZM119.073 25.5143L110.866 20.902L124.16 0.214478H136.301L119.073 25.5143Z"/>
      <path d="M52.5178 48.101V0.214478H63.1668V48.101H52.5178ZM60.6572 48.101V38.8764H86.9066V48.101H60.6572ZM60.6572 28.0917V19.2063H84.5326V28.0917H60.6572ZM60.6572 9.37124V0.214478H86.5674V9.37124H60.6572Z"/>
      <path d="M2.44182 48.101V0.214478H9.90289L13.0908 9.77821V48.101H2.44182ZM35.474 48.101L7.2576 11.9487L9.90289 0.214478L38.1193 36.3668L35.474 48.101ZM35.474 48.101L32.6252 38.5373V0.214478H43.2742V48.101H35.474Z"/>
      <path d="M97.4274 189.692V141.805H105.024L123.88 171.175H120.014L138.802 141.805H146.467V189.692H135.818V159.78L137.717 160.254L125.44 179.382H118.386L106.177 160.254L108.009 159.78V189.692H97.4274Z"/>
      <path d="M55.6973 189.692V141.805H66.3463V189.692H55.6973ZM63.8367 189.692V180.467H90.0861V189.692H63.8367ZM63.8367 169.682V160.797H87.7121V169.682H63.8367ZM63.8367 150.962V141.805H89.7469V150.962H63.8367Z"/>
      <path d="M25.0285 190.438C21.5467 190.438 18.2683 189.805 15.1935 188.539C12.1638 187.272 9.51852 185.532 7.25759 183.316C4.99666 181.055 3.21052 178.432 1.89918 175.448C0.63306 172.418 0 169.162 0 165.681C0 162.199 0.65567 158.966 1.96701 155.981C3.27835 152.997 5.08709 150.397 7.39324 148.181C9.74461 145.92 12.4803 144.179 15.6004 142.958C18.7205 141.692 22.0667 141.059 25.639 141.059C29.7538 141.059 33.4844 141.805 36.8306 143.297C40.222 144.79 43.0255 146.847 45.2412 149.47L37.9836 156.727C36.4462 154.738 34.6375 153.245 32.5574 152.251C30.4773 151.256 28.126 150.758 25.5033 150.758C22.6997 150.758 20.1901 151.392 17.9744 152.658C15.7587 153.879 14.0178 155.619 12.7516 157.88C11.5307 160.096 10.9203 162.696 10.9203 165.681C10.9203 168.665 11.5307 171.288 12.7516 173.549C13.9725 175.81 15.6456 177.573 17.7709 178.839C19.8962 180.105 22.338 180.738 25.0963 180.738C27.8999 180.738 30.2739 180.218 32.2183 179.178C34.2079 178.093 35.7227 176.556 36.7627 174.566C37.848 172.531 38.3906 170.067 38.3906 167.173L45.4447 171.921L24.0789 171.582V162.561H49.2431V164.121C49.2431 169.863 48.203 174.702 46.123 178.636C44.0881 182.525 41.2394 185.464 37.5767 187.453C33.9592 189.443 29.7765 190.438 25.0285 190.438Z"/>
      <path d="M172.543 123.038H162.368V111.134L178.444 95.5677L162.877 80.3064V68.4026H173.051V77.5594L184.955 89.0562L196.655 77.5594V68.4026H206.931V80.3064L191.467 95.5677L207.44 111.134V123.038H197.164V113.881L184.955 101.876L172.543 113.881V123.038Z"/>
      <path d="M143.094 132.038H111.249L104.127 124.916V68.5511L111.249 61.5309H143.094L150.114 68.5511V124.916L143.094 132.038ZM114.504 71.0946V122.373H139.838V71.0946H114.504Z"/>
      <path d="M81.393 132.038H49.5478L42.4259 124.916V68.5511L49.5478 61.5309H81.393L88.4132 68.5511V124.916L81.393 132.038ZM52.8035 71.0946V122.373H78.1372V71.0946H52.8035Z"/>
      <path d="M32.1165 132.038H1.28868V122.779H11.7681V72.519H1.49216V67.5337L13.9047 61.5309H22.1458V122.779H32.1165V132.038Z"/>
      <g opacity="0.5">
        <path d="M199.572 189.692V142.687H206.626V189.692H199.572Z"/>
        <path d="M161.43 189.692H154.376V180.603L168.213 142.687H177.506L191.343 180.535V189.692H184.288V181.349L182.593 176.737H163.126L161.43 181.349V189.692ZM172.826 148.927L164.822 170.768H180.897L172.826 148.927Z"/>
      </g>
    </g>
    <g id="logotype-horizontal">
      <path d="M149.245 49.1009V1.89263H159.894V49.1009H149.245ZM134.255 10.5068V1.21436H174.884V10.5068H134.255Z" />
      <path d="M122.193 49.1009L108.831 27.7351H107.542L89.093 1.21436H101.777L114.935 21.2914H116.224L134.673 49.1009H122.193ZM88.2112 49.1009L105.914 23.4619L114.121 28.0742L100.352 49.1009H88.2112ZM116.631 26.5142L108.424 21.9019L121.718 1.21436H133.859L116.631 26.5142Z" />
      <path d="M50.076 49.1009V1.21436H60.725V49.1009H50.076ZM58.2154 49.1009V39.8763H84.4647V49.1009H58.2154ZM58.2154 29.0916V20.2062H82.0908V29.0916H58.2154ZM58.2154 10.3711V1.21436H84.1256V10.3711H58.2154Z" />
      <path d="M0 49.1009V1.21436H7.46107L10.649 10.7781V49.1009H0ZM33.0322 49.1009L4.81578 12.9486L7.46107 1.21436L35.6775 37.3666L33.0322 49.1009ZM33.0322 49.1009L30.1834 39.5371V1.21436H40.8324V49.1009H33.0322Z" />
      <path d="M437.986 48.6326V0.746094H445.582L464.438 30.1156H460.572L479.361 0.746094H487.025V48.6326H476.376V18.7205L478.275 19.1953L465.999 38.3228H458.944L446.735 19.1953L448.567 18.7205V48.6326H437.986Z" />
      <path d="M396.255 48.6326V0.746094H406.904V48.6326H396.255ZM404.395 48.6326V39.408H430.644V48.6326H404.395ZM404.395 28.6234V19.7379H428.27V28.6234H404.395ZM404.395 9.90286V0.746094H430.305V9.90286H404.395Z" />
      <path d="M365.587 49.3787C362.105 49.3787 358.826 48.7457 355.752 47.4795C352.722 46.2134 350.077 44.4725 347.816 42.2568C345.555 39.9959 343.769 37.3732 342.457 34.3887C341.191 31.3591 340.558 28.1034 340.558 24.6215C340.558 21.1397 341.214 17.9066 342.525 14.9221C343.837 11.9377 345.645 9.33764 347.951 7.12193C350.303 4.861 353.039 3.12008 356.159 1.89918C359.279 0.63306 362.625 0 366.197 0C370.312 0 374.043 0.746107 377.389 2.23832C380.78 3.73053 383.584 5.78798 385.799 8.41066L378.542 15.6682C377.004 13.6786 375.196 12.1864 373.116 11.1916C371.036 10.1968 368.684 9.69939 366.061 9.69939C363.258 9.69939 360.748 10.3325 358.533 11.5986C356.317 12.8195 354.576 14.5604 353.31 16.8213C352.089 19.037 351.478 21.6371 351.478 24.6215C351.478 27.606 352.089 30.2286 353.31 32.4896C354.531 34.7505 356.204 36.514 358.329 37.7801C360.454 39.0463 362.896 39.6793 365.654 39.6793C368.458 39.6793 370.832 39.1593 372.776 38.1193C374.766 37.034 376.281 35.4966 377.321 33.507C378.406 31.4721 378.949 29.0077 378.949 26.1137L386.003 30.8617L364.637 30.5226V21.5014H389.801V23.0615C389.801 28.8042 388.761 33.6426 386.681 37.5767C384.646 41.4655 381.798 44.4047 378.135 46.3943C374.517 48.3839 370.335 49.3787 365.587 49.3787Z" />
      <path d="M303.362 49H294.558V38.5419L308.468 24.8659L294.998 11.4581V1H303.802V9.04469L314.102 19.1452L324.226 9.04469V1H333.118V11.4581L319.736 24.8659L333.558 38.5419V49H324.667V40.9553L314.102 30.4078L303.362 40.9553V49Z" />
      <path d="M281.097 49H259.417L254.568 44.1515V5.77922L259.417 1H281.097L285.876 5.77922V44.1515L281.097 49ZM261.633 7.51082V42.4199H278.88V7.51082H261.633Z" />
      <path d="M239.092 49H217.412L212.564 44.1515V5.77922L217.412 1H239.092L243.871 5.77922V44.1515L239.092 49ZM219.629 7.51082V42.4199H236.875V7.51082H219.629Z" />
      <path d="M205.545 49H184.558V42.697H191.692V8.48052H184.697V5.08658L193.147 1H198.757V42.697H205.545V49Z" />
      <g opacity="0.5">
        <path d="M538.754 49.0047V2H545.808V49.0047H538.754Z" />
        <path d="M500.612 49.0047H493.558V39.9158L507.395 2H516.687L530.524 39.848V49.0047H523.47V40.6619L521.775 36.0496H502.308L500.612 40.6619V49.0047ZM512.007 8.24017L504.004 30.0808H520.079L512.007 8.24017Z" />
      </g>
    </g>
  </defs>
</svg>